<svg width="198.244970703125px" height="135.217578125px" xmlns="http://www.w3.org/2000/svg" viewBox="150.8775146484375 7.391210937500006 198.244970703125 135.217578125" style="background: rgb(255, 255, 255);" preserveAspectRatio="xMidYMid"><defs><filter id="editing-crystal" x="-100%" y="-100%" width="300%" height="300%"><feMorphology operator="dilate" radius="2" in="SourceGraphic" result="border"></feMorphology><feFlood flood-color="#fff" result="black"></feFlood><feMorphology operator="dilate" radius="2" in="SourceGraphic" result="erode"></feMorphology><feGaussianBlur in="erode" stdDeviation="4" result="blur"></feGaussianBlur><feOffset in="blur" dx="2" dy="2" result="offset"></feOffset><feComposite operator="atop" in="offset" in2="black" result="merge"></feComposite><feComposite operator="in" in="merge" in2="SourceGraphic" result="inner-shadow"></feComposite><feGaussianBlur in="SourceGraphic" stdDeviation="2.5" result="shadow1"></feGaussianBlur><feOffset in="shadow1" dx="0" dy="5" result="shadow"></feOffset><feSpecularLighting in="SourceGraphic" result="specular" surfaceScale="1.5" specularConstant="100" specularExponent="10" lighting-color="#ffffff"><fePointLight x="250" y="-300" z="-400"></fePointLight></feSpecularLighting><feGaussianBlur in="specular" stdDeviation="1" result="specular2"></feGaussianBlur><feComposite operator="in" in="specular2" in2="SourceAlpha" result="specular3"></feComposite><feMerge result="merge"><feMergeNode in="border"></feMergeNode><feMergeNode in="inner-shadow"></feMergeNode><feMergeNode in="specular3"></feMergeNode></feMerge><feComponentTransfer in="merge" result="final"><feFuncA type="linear" slope="0.9" intercept="0"></feFuncA></feComponentTransfer><feMerge><feMergeNode in="shadow"></feMergeNode><feMergeNode in="final"></feMergeNode></feMerge></filter></defs><g filter="url(#editing-crystal)"><g transform="translate(183.8699975013733, 100.23187446594238)"><path d="M20.97-20.90L14.20-21.31L14.87-3.35L21.37-2.01L21.04 0.67L11.52 0L2.35 0.67L2.48-2.01L8.04-3.35L8.51-20.50L8.17-43.55L2.68-44.89L3.02-47.57L11.19-46.90L20.17-47.64L25.66-47.23L31.09-45.49L36.38-41.47L38.06-34.57L36.85-27.14L32.76-24.19L28.34-22.91L37.92-2.61L43.15-2.61L43.55-0.40L35.71 1.21L31.36-2.35L23.05-21.44L20.97-20.90ZM24.46-44.49L14.67-43.89L14.27-24.25L20.17-23.92L29.21-27.34L31.16-33.16L29.75-39.33L24.46-44.49ZM56.62-23.92L62.65-42.34L63.92-48.24L67.20-48.78L76.58-23.99L85.22-3.35L90.85-2.01L90.52 0.67L82.34 0L72.16 0.67L72.29-2.01L77.79-3.35L73.10-16.08L64.99-16.35L57.29-16.08L52.93-3.35L58.02-2.01L57.69 0.67L49.51 0L43.35 0.67L43.48-2.01L48.71-3.35L56.62-23.92ZM64.72-40.00L64.59-40.00L58.49-19.77L64.99-19.50L71.76-19.77L67.47-30.49L64.72-40.00ZM127.37-6.90L128.91-4.69L122.21-0.13L109.48 1.34L96.81-4.69L92.06-13.33L90.72-21.98L90.72-28.81L94.34-37.59L102.98-45.76L112.16-48.31L119.66-48.31L129.91-45.69L128.71-42.28L127.77-34.17L125.22-33.97L123.68-43.35L118.72-44.62L110.68-44.62L100.63-36.05L98.42-25.06L99.36-14.87L103.25-7.71L110.22-2.21L121.14-3.15L127.37-6.90Z" fill="#000000" stroke="#88e0eb" stroke-width="1.5"></path></g></g><style>text {
  font-size: 64px;
  font-family: Arial Black;
  dominant-baseline: central;
  text-anchor: middle;
}</style></svg>